<?xml version="1.0" encoding="utf-8"?>
<!-- Generator: Adobe Illustrator 24.1.0, SVG Export Plug-In . SVG Version: 6.00 Build 0)  -->
<svg version="1.1" id="Layer_1" xmlns="http://www.w3.org/2000/svg" xmlns:xlink="http://www.w3.org/1999/xlink" x="0px" y="0px"
	 viewBox="0 0 524.41 311.81" style="enable-background:new 0 0 524.41 311.81;" xml:space="preserve">
<style type="text/css">
	.st0{fill:#FFFFFF;stroke:#000000;stroke-width:15;stroke-miterlimit:10;}
	.st1{fill:#FFFFFF;stroke:#000000;stroke-width:15;stroke-linecap:round;stroke-miterlimit:10;}
	.st2{fill:none;stroke:#000000;stroke-width:15;stroke-linecap:round;stroke-miterlimit:10;}
	.st3{fill:none;stroke:#000000;stroke-width:15;stroke-miterlimit:10;}
</style>
<g>
	<path class="st0" d="M144.48,97.12"/>
	<line class="st1" x1="257.46" y1="280.96" x2="89.45" y2="155.07"/>
	<path class="st2" d="M43.95,280.96V41.2c0-3.86,4.66-5.79,7.39-3.06l95.53,95.53c1.69,1.69,4.43,1.69,6.12,0l97.08-97.08
		c2.73-2.73,7.39-0.8,7.39,3.06v241.31"/>
	<path class="st2" d="M303.2,152.97c49.24-26.88,135.14-23.38,171.73,23.2c17.53,23.59,12.61,54.6-8.37,74.22
		c-46.25,41.66-138.85,41.17-184.49-1.32"/>
	<path class="st2" d="M453.77,157.51c-49.24,26.88-135.14,23.38-171.73-23.2c-17.53-23.59-12.61-54.6,8.37-74.22
		c46.25-41.66,138.85-41.17,184.49,1.32"/>
	<path class="st3" d="M509.79,303.13H15.15c-2.39,0-4.33-1.91-4.33-4.28V12.91c0-2.36,1.94-4.28,4.33-4.28h494.63
		c2.39,0,4.33,1.91,4.33,4.28v285.95C514.12,301.22,512.18,303.13,509.79,303.13z"/>
	<line class="st1" x1="43.95" y1="280.96" x2="211.97" y2="155.07"/>
</g>
</svg>
